<svg preserveAspectRatio="none" overflow="visible" style="display: block;" width="18.0344" height="20.6108" viewBox="0 0 18.0344 20.6108" fill="none" xmlns="http://www.w3.org/2000/svg">
<g id="Eye" clip-path="url(#clip0_0_47)">
<g id="Segment" filter="url(#filter0_d_0_47)">
<path d="M1.18693e-07 10.3051C1.18693e-07 14.2181 0.0757823 17.3901 1.42377 17.3901C2.77176 17.3901 3.86452 14.2181 3.86452 10.3051C3.86452 6.39224 2.77176 3.2202 1.42377 3.2202C0.0757823 3.2202 1.18693e-07 6.39224 1.18693e-07 10.3051Z" fill="#F0E8FF"/>
</g>
<g id="Segment_2" filter="url(#filter1_d_0_47)">
<path d="M18.0344 10.3051C18.0344 14.2181 17.9586 17.3901 16.6107 17.3901C15.2627 17.3901 14.1699 14.2181 14.1699 10.3051C14.1699 6.39224 15.2627 3.2202 16.6107 3.2202C17.9586 3.2202 18.0344 6.39224 18.0344 10.3051Z" fill="#F0E8FF"/>
</g>
<g id="Segment_3" filter="url(#filter2_d_0_47)">
<path d="M9.01721 20.6108C5.1043 20.6108 1.93226 20.535 1.93226 19.187C1.93226 17.839 5.1043 16.7462 9.01721 16.7462C12.9301 16.7463 16.1022 17.839 16.1022 19.187C16.1022 20.535 12.9301 20.6108 9.01721 20.6108Z" fill="#F0E8FF"/>
</g>
<g id="Segment_4" filter="url(#filter3_d_0_47)">
<path d="M9.01721 4.28386e-07C5.1043 5.99425e-07 1.93226 0.0757829 1.93226 1.42377C1.93226 2.77176 5.1043 3.86452 9.01721 3.86452C12.9301 3.86452 16.1022 2.77176 16.1022 1.42377C16.1022 0.0757823 12.9301 2.57347e-07 9.01721 4.28386e-07Z" fill="#F0E8FF"/>
</g>
</g>
<defs>
<filter id="filter0_d_0_47" x="-2.57635" y="-0.644322" width="9.01721" height="19.3226" filterUnits="userSpaceOnUse" color-interpolation-filters="sRGB">
<feFlood flood-opacity="0" result="BackgroundImageFix"/>
<feColorMatrix in="SourceAlpha" type="matrix" values="0 0 0 0 0 0 0 0 0 0 0 0 0 0 0 0 0 0 127 0" result="hardAlpha"/>
<feOffset dy="-1.28817"/>
<feGaussianBlur stdDeviation="1.28817"/>
<feComposite in2="hardAlpha" operator="out"/>
<feColorMatrix type="matrix" values="0 0 0 0 0.459669 0 0 0 0 0.0464742 0 0 0 0 1 0 0 0 0.18 0"/>
<feBlend mode="normal" in2="BackgroundImageFix" result="effect1_dropShadow_0_47"/>
<feBlend mode="normal" in="SourceGraphic" in2="effect1_dropShadow_0_47" result="shape"/>
</filter>
<filter id="filter1_d_0_47" x="11.5936" y="-0.644322" width="9.01721" height="19.3226" filterUnits="userSpaceOnUse" color-interpolation-filters="sRGB">
<feFlood flood-opacity="0" result="BackgroundImageFix"/>
<feColorMatrix in="SourceAlpha" type="matrix" values="0 0 0 0 0 0 0 0 0 0 0 0 0 0 0 0 0 0 127 0" result="hardAlpha"/>
<feOffset dy="-1.28817"/>
<feGaussianBlur stdDeviation="1.28817"/>
<feComposite in2="hardAlpha" operator="out"/>
<feColorMatrix type="matrix" values="0 0 0 0 0.459669 0 0 0 0 0.0464742 0 0 0 0 1 0 0 0 0.18 0"/>
<feBlend mode="normal" in2="BackgroundImageFix" result="effect1_dropShadow_0_47"/>
<feBlend mode="normal" in="SourceGraphic" in2="effect1_dropShadow_0_47" result="shape"/>
</filter>
<filter id="filter2_d_0_47" x="-0.644087" y="12.8817" width="19.3226" height="9.01721" filterUnits="userSpaceOnUse" color-interpolation-filters="sRGB">
<feFlood flood-opacity="0" result="BackgroundImageFix"/>
<feColorMatrix in="SourceAlpha" type="matrix" values="0 0 0 0 0 0 0 0 0 0 0 0 0 0 0 0 0 0 127 0" result="hardAlpha"/>
<feOffset dy="-1.28817"/>
<feGaussianBlur stdDeviation="1.28817"/>
<feComposite in2="hardAlpha" operator="out"/>
<feColorMatrix type="matrix" values="0 0 0 0 0.459669 0 0 0 0 0.0464742 0 0 0 0 1 0 0 0 0.18 0"/>
<feBlend mode="normal" in2="BackgroundImageFix" result="effect1_dropShadow_0_47"/>
<feBlend mode="normal" in="SourceGraphic" in2="effect1_dropShadow_0_47" result="shape"/>
</filter>
<filter id="filter3_d_0_47" x="-0.644087" y="-3.86452" width="19.3226" height="9.01721" filterUnits="userSpaceOnUse" color-interpolation-filters="sRGB">
<feFlood flood-opacity="0" result="BackgroundImageFix"/>
<feColorMatrix in="SourceAlpha" type="matrix" values="0 0 0 0 0 0 0 0 0 0 0 0 0 0 0 0 0 0 127 0" result="hardAlpha"/>
<feOffset dy="-1.28817"/>
<feGaussianBlur stdDeviation="1.28817"/>
<feComposite in2="hardAlpha" operator="out"/>
<feColorMatrix type="matrix" values="0 0 0 0 0.459669 0 0 0 0 0.0464742 0 0 0 0 1 0 0 0 0.18 0"/>
<feBlend mode="normal" in2="BackgroundImageFix" result="effect1_dropShadow_0_47"/>
<feBlend mode="normal" in="SourceGraphic" in2="effect1_dropShadow_0_47" result="shape"/>
</filter>
<clipPath id="clip0_0_47">
<rect width="18.0344" height="20.6108" fill="white"/>
</clipPath>
</defs>
</svg>
